<svg xmlns="http://www.w3.org/2000/svg" xmlns:xlink="http://www.w3.org/1999/xlink" id="terminal" baseProfile="full" viewBox="0 0 1896 954" width="1896" version="1.1">
    <defs>
        <termtosvg:template_settings xmlns:termtosvg="https://github.com/nbedos/termtosvg">
            <termtosvg:screen_geometry columns="237" rows="56"/>
            <termtosvg:animation type="css"/>
        </termtosvg:template_settings>
        <style type="text/css" id="generated-style"><![CDATA[#screen {
                font-family: 'DejaVu Sans Mono', monospace;
                font-style: normal;
                font-size: 14px;
            }

        text {
            dominant-baseline: text-before-edge;
            white-space: pre;
        }
    
            :root {
                --animation-duration: 15713ms;
            }

            @keyframes roll {
                0.000%{transform:translateY(0px)}
8.865%{transform:translateY(-986px)}
21.555%{transform:translateY(-1972px)}
21.574%{transform:translateY(-2958px)}
69.172%{transform:translateY(-3944px)}
73.614%{transform:translateY(-4930px)}
73.881%{transform:translateY(-5916px)}
74.193%{transform:translateY(-6902px)}
88.035%{transform:translateY(-7888px)}
90.422%{transform:translateY(-8874px)}
91.338%{transform:translateY(-9860px)}
92.509%{transform:translateY(-10846px)}
93.636%{transform:translateY(-11832px)}
100.000%{transform:translateY(-11832px)}
            }

            #screen_view {
                animation-duration: 15713ms;
                animation-iteration-count:infinite;
                animation-name:roll;
                animation-timing-function: steps(1,end);
                animation-fill-mode: forwards;
            }
        ]]></style>
        <style type="text/css" id="user-style">
            /* gjm8 color theme (source: https://terminal.sexy/) */
            .foreground {fill: #c5c5c5;}
            .background {fill: #1c1c1c;}
            .color0 {fill: #1c1c1c;}
            .color1 {fill: #ff005b;}
            .color2 {fill: #cee318;}
            .color3 {fill: #ffe755;}
            .color4 {fill: #048ac7;}
            .color5 {fill: #833c9f;}
            .color6 {fill: #0ac1cd;}
            .color7 {fill: #e5e5e5;}
            .color8 {fill: #1c1c1c;}
            .color9 {fill: #ff005b;}
            .color10 {fill: #cee318;}
            .color11 {fill: #ffe755;}
            .color12 {fill: #048ac7;}
            .color13 {fill: #833c9f;}
            .color14 {fill: #0ac1cd;}
            .color15 {fill: #e5e5e5;}
        </style>
    </defs>
    <svg id="screen" width="1896" height="952" viewBox="0 0 1896 952" preserveAspectRatio="xMidYMin slice">
        <rect class="background" height="100%" width="100%" x="0" y="0"/><defs><g id="g1"><text x="0" textLength="160" font-weight="bold" class="color10">mr-moha@moha-desktop</text><text x="160" textLength="8" class="foreground">:</text><text x="168" textLength="8" font-weight="bold" class="color12">~</text><text x="176" textLength="16" class="foreground">$ </text><text x="192" textLength="8" class="background"> </text></g><g id="g2"><text x="0" textLength="160" font-weight="bold" class="color10">mr-moha@moha-desktop</text><text x="160" textLength="8" class="foreground">:</text><text x="168" textLength="8" font-weight="bold" class="color12">~</text><text x="176" textLength="264" class="foreground">$ nmap --script ipfinder wwwe.com</text><text x="440" textLength="8" class="background"> </text></g><g id="g3"><text x="0" textLength="160" font-weight="bold" class="color10">mr-moha@moha-desktop</text><text x="160" textLength="8" class="foreground">:</text><text x="168" textLength="8" font-weight="bold" class="color12">~</text><text x="176" textLength="264" class="foreground">$ nmap --script ipfinder wwwe.com</text></g><g id="g4"><text x="0" textLength="8" class="background"> </text></g><g id="g5"><text x="0" textLength="504" class="foreground">Starting Nmap 7.60 ( https://nmap.org ) at 2019-08-28 17:31 CET</text></g><g id="g6"><text x="0" textLength="248" class="color4">  _   _   _   _   _   _   _   _</text></g><g id="g7"><text x="0" textLength="256" class="color4"> / \ / \ / \ / \ / \ / \ / \ / \</text></g><g id="g8"><text x="0" textLength="264" class="color4">( I | P | f | i | n | d | e | r )</text></g><g id="g9"><text x="0" textLength="264" class="color4"> \_/ \_/ \_/ \_/ \_/ \_/ \_/ \_/ </text><text x="264" textLength="112" class="color1">version: 1.0.2</text><text x="376" textLength="384" font-weight="bold" class="color15"> official documentation https://ipfinder.io/docs</text></g><g id="g10"><text x="0" textLength="8" class="color7">{</text></g><g id="g11"><text x="0" textLength="152" class="color7">    "status": "ok",</text></g><g id="g12"><text x="0" textLength="360" class="color7">    "status_message": "Query was successful",</text></g><g id="g13"><text x="0" textLength="216" class="color7">    "ip": "91.195.240.126",</text></g><g id="g14"><text x="0" textLength="152" class="color7">    "type": "IPV4",</text></g><g id="g15"><text x="0" textLength="216" class="color7">    "continent_code": "EU",</text></g><g id="g16"><text x="0" textLength="248" class="color7">    "continent_name": "Europe",</text></g><g id="g17"><text x="0" textLength="200" class="color7">    "country_code": "DE",</text></g><g id="g18"><text x="0" textLength="240" class="color7">    "country_name": "Germany",</text></g><g id="g19"><text x="0" textLength="328" class="color7">    "country_native_name": "Deutschland",</text></g><g id="g20"><text x="0" textLength="352" class="color7">    "region_name": "North Rhine-Westphalia",</text></g><g id="g21"><text x="0" textLength="304" class="color7">    "city": "Cologne (Neustadt\/Nord)"</text></g><g id="g22"><text x="0" textLength="16" class="color7">} </text></g><g id="g23"><text x="0" textLength="640" font-weight="bold" class="color15">--------------------------------------------------------------------------------</text></g><g id="g24"><text x="0" textLength="368" font-weight="bold" class="color15">Nmap scan report for wwwe.com (91.195.240.126)</text></g><g id="g25"><text x="0" textLength="224" font-weight="bold" class="color15">Host is up (0.037s latency).</text></g><g id="g26"><text x="0" textLength="232" font-weight="bold" class="color15">Not shown: 998 filtered ports</text></g><g id="g27"><text x="0" textLength="168" font-weight="bold" class="color15">PORT    STATE SERVICE</text></g><g id="g28"><text x="0" textLength="144" font-weight="bold" class="color15">80/tcp  open  http</text></g><g id="g29"><text x="0" textLength="152" font-weight="bold" class="color15">443/tcp open  https</text></g><g id="g30"><text x="0" textLength="160" font-weight="bold" class="color15">Host script results:</text></g><g id="g31"><text x="0" textLength="128" font-weight="bold" class="color15">|_ipfinder: true</text></g><g id="g32"><text x="0" textLength="472" font-weight="bold" class="color15">Nmap done: 1 IP address (1 host up) scanned in 8.21 seconds</text></g><g id="g33"><text x="0" textLength="160" font-weight="bold" class="color10">mr-moha@moha-desktop</text><text x="160" textLength="8" class="foreground">:</text><text x="168" textLength="8" font-weight="bold" class="color12">~</text><text x="176" textLength="24" class="foreground">$ e</text><text x="200" textLength="8" class="background"> </text></g><g id="g34"><text x="0" textLength="160" font-weight="bold" class="color10">mr-moha@moha-desktop</text><text x="160" textLength="8" class="foreground">:</text><text x="168" textLength="8" font-weight="bold" class="color12">~</text><text x="176" textLength="32" class="foreground">$ ex</text><text x="208" textLength="8" class="background"> </text></g><g id="g35"><text x="0" textLength="160" font-weight="bold" class="color10">mr-moha@moha-desktop</text><text x="160" textLength="8" class="foreground">:</text><text x="168" textLength="8" font-weight="bold" class="color12">~</text><text x="176" textLength="40" class="foreground">$ exi</text><text x="216" textLength="8" class="background"> </text></g><g id="g36"><text x="0" textLength="160" font-weight="bold" class="color10">mr-moha@moha-desktop</text><text x="160" textLength="8" class="foreground">:</text><text x="168" textLength="8" font-weight="bold" class="color12">~</text><text x="176" textLength="48" class="foreground"></text><text x="224" textLength="8" class="background"> </text></g><g id="g37"><text x="0" textLength="160" font-weight="bold" class="color10">mr-moha@moha-desktop</text><text x="160" textLength="8" class="foreground">:</text><text x="168" textLength="8" font-weight="bold" class="color12">~</text><text x="176" textLength="48" class="foreground">$ exit</text></g><g id="g38"><text x="0" textLength="32" class="foreground"></text></g></defs><g id="screen_view"><g><rect x="192" y="0" width="8" height="17" class="foreground"/><use xlink:href="#g1" y="0"/></g><g><rect x="440" y="986" width="8" height="17" class="foreground"/><use xlink:href="#g2" y="986"/></g><g><use xlink:href="#g3" y="1972"/><rect x="0" y="1989" width="8" height="17" class="foreground"/><use xlink:href="#g4" y="1989"/></g><g><use xlink:href="#g3" y="2958"/><use xlink:href="#g5" y="2992"/><rect x="0" y="3009" width="8" height="17" class="foreground"/><use xlink:href="#g4" y="3009"/></g><g><use xlink:href="#g3" y="3944"/><use xlink:href="#g5" y="3978"/><use xlink:href="#g6" y="4012"/><use xlink:href="#g7" y="4029"/><use xlink:href="#g8" y="4046"/><use xlink:href="#g9" y="4063"/><rect x="0" y="4114" width="8" height="17" class="color4"/><use xlink:href="#g4" y="4114"/></g><g><use xlink:href="#g3" y="4930"/><use xlink:href="#g5" y="4964"/><use xlink:href="#g6" y="4998"/><use xlink:href="#g7" y="5015"/><use xlink:href="#g8" y="5032"/><use xlink:href="#g9" y="5049"/><rect x="0" y="5100" width="8" height="17" class="color1"/><use xlink:href="#g10" y="5100"/><rect x="0" y="5117" width="152" height="17" class="color1"/><use xlink:href="#g11" y="5117"/><rect x="0" y="5134" width="360" height="17" class="color1"/><use xlink:href="#g12" y="5134"/><rect x="0" y="5151" width="216" height="17" class="color1"/><use xlink:href="#g13" y="5151"/><rect x="0" y="5168" width="152" height="17" class="color1"/><use xlink:href="#g14" y="5168"/><rect x="0" y="5185" width="216" height="17" class="color1"/><use xlink:href="#g15" y="5185"/><rect x="0" y="5202" width="248" height="17" class="color1"/><use xlink:href="#g16" y="5202"/><rect x="0" y="5219" width="200" height="17" class="color1"/><use xlink:href="#g17" y="5219"/><rect x="0" y="5236" width="240" height="17" class="color1"/><use xlink:href="#g18" y="5236"/><rect x="0" y="5253" width="328" height="17" class="color1"/><use xlink:href="#g19" y="5253"/><rect x="0" y="5270" width="352" height="17" class="color1"/><use xlink:href="#g20" y="5270"/><rect x="0" y="5287" width="304" height="17" class="color1"/><use xlink:href="#g21" y="5287"/><rect x="0" y="5304" width="16" height="17" class="color1"/><use xlink:href="#g22" y="5304"/><use xlink:href="#g23" y="5321"/><rect x="0" y="5338" width="8" height="17" class="color7"/><use xlink:href="#g4" y="5338"/></g><g><use xlink:href="#g3" y="5916"/><use xlink:href="#g5" y="5950"/><use xlink:href="#g6" y="5984"/><use xlink:href="#g7" y="6001"/><use xlink:href="#g8" y="6018"/><use xlink:href="#g9" y="6035"/><rect x="0" y="6086" width="8" height="17" class="color1"/><use xlink:href="#g10" y="6086"/><rect x="0" y="6103" width="152" height="17" class="color1"/><use xlink:href="#g11" y="6103"/><rect x="0" y="6120" width="360" height="17" class="color1"/><use xlink:href="#g12" y="6120"/><rect x="0" y="6137" width="216" height="17" class="color1"/><use xlink:href="#g13" y="6137"/><rect x="0" y="6154" width="152" height="17" class="color1"/><use xlink:href="#g14" y="6154"/><rect x="0" y="6171" width="216" height="17" class="color1"/><use xlink:href="#g15" y="6171"/><rect x="0" y="6188" width="248" height="17" class="color1"/><use xlink:href="#g16" y="6188"/><rect x="0" y="6205" width="200" height="17" class="color1"/><use xlink:href="#g17" y="6205"/><rect x="0" y="6222" width="240" height="17" class="color1"/><use xlink:href="#g18" y="6222"/><rect x="0" y="6239" width="328" height="17" class="color1"/><use xlink:href="#g19" y="6239"/><rect x="0" y="6256" width="352" height="17" class="color1"/><use xlink:href="#g20" y="6256"/><rect x="0" y="6273" width="304" height="17" class="color1"/><use xlink:href="#g21" y="6273"/><rect x="0" y="6290" width="16" height="17" class="color1"/><use xlink:href="#g22" y="6290"/><use xlink:href="#g23" y="6307"/><use xlink:href="#g24" y="6324"/><use xlink:href="#g25" y="6341"/><use xlink:href="#g26" y="6358"/><use xlink:href="#g27" y="6375"/><use xlink:href="#g28" y="6392"/><use xlink:href="#g29" y="6409"/><use xlink:href="#g30" y="6443"/><use xlink:href="#g31" y="6460"/><use xlink:href="#g32" y="6494"/><rect x="0" y="6511" width="8" height="17" class="color7"/><use xlink:href="#g4" y="6511"/></g><g><use xlink:href="#g3" y="6902"/><use xlink:href="#g5" y="6936"/><use xlink:href="#g6" y="6970"/><use xlink:href="#g7" y="6987"/><use xlink:href="#g8" y="7004"/><use xlink:href="#g9" y="7021"/><rect x="0" y="7072" width="8" height="17" class="color1"/><use xlink:href="#g10" y="7072"/><rect x="0" y="7089" width="152" height="17" class="color1"/><use xlink:href="#g11" y="7089"/><rect x="0" y="7106" width="360" height="17" class="color1"/><use xlink:href="#g12" y="7106"/><rect x="0" y="7123" width="216" height="17" class="color1"/><use xlink:href="#g13" y="7123"/><rect x="0" y="7140" width="152" height="17" class="color1"/><use xlink:href="#g14" y="7140"/><rect x="0" y="7157" width="216" height="17" class="color1"/><use xlink:href="#g15" y="7157"/><rect x="0" y="7174" width="248" height="17" class="color1"/><use xlink:href="#g16" y="7174"/><rect x="0" y="7191" width="200" height="17" class="color1"/><use xlink:href="#g17" y="7191"/><rect x="0" y="7208" width="240" height="17" class="color1"/><use xlink:href="#g18" y="7208"/><rect x="0" y="7225" width="328" height="17" class="color1"/><use xlink:href="#g19" y="7225"/><rect x="0" y="7242" width="352" height="17" class="color1"/><use xlink:href="#g20" y="7242"/><rect x="0" y="7259" width="304" height="17" class="color1"/><use xlink:href="#g21" y="7259"/><rect x="0" y="7276" width="16" height="17" class="color1"/><use xlink:href="#g22" y="7276"/><use xlink:href="#g23" y="7293"/><use xlink:href="#g24" y="7310"/><use xlink:href="#g25" y="7327"/><use xlink:href="#g26" y="7344"/><use xlink:href="#g27" y="7361"/><use xlink:href="#g28" y="7378"/><use xlink:href="#g29" y="7395"/><use xlink:href="#g30" y="7429"/><use xlink:href="#g31" y="7446"/><use xlink:href="#g32" y="7480"/><rect x="192" y="7497" width="8" height="17" class="foreground"/><use xlink:href="#g1" y="7497"/></g><g><use xlink:href="#g3" y="7888"/><use xlink:href="#g5" y="7922"/><use xlink:href="#g6" y="7956"/><use xlink:href="#g7" y="7973"/><use xlink:href="#g8" y="7990"/><use xlink:href="#g9" y="8007"/><rect x="0" y="8058" width="8" height="17" class="color1"/><use xlink:href="#g10" y="8058"/><rect x="0" y="8075" width="152" height="17" class="color1"/><use xlink:href="#g11" y="8075"/><rect x="0" y="8092" width="360" height="17" class="color1"/><use xlink:href="#g12" y="8092"/><rect x="0" y="8109" width="216" height="17" class="color1"/><use xlink:href="#g13" y="8109"/><rect x="0" y="8126" width="152" height="17" class="color1"/><use xlink:href="#g14" y="8126"/><rect x="0" y="8143" width="216" height="17" class="color1"/><use xlink:href="#g15" y="8143"/><rect x="0" y="8160" width="248" height="17" class="color1"/><use xlink:href="#g16" y="8160"/><rect x="0" y="8177" width="200" height="17" class="color1"/><use xlink:href="#g17" y="8177"/><rect x="0" y="8194" width="240" height="17" class="color1"/><use xlink:href="#g18" y="8194"/><rect x="0" y="8211" width="328" height="17" class="color1"/><use xlink:href="#g19" y="8211"/><rect x="0" y="8228" width="352" height="17" class="color1"/><use xlink:href="#g20" y="8228"/><rect x="0" y="8245" width="304" height="17" class="color1"/><use xlink:href="#g21" y="8245"/><rect x="0" y="8262" width="16" height="17" class="color1"/><use xlink:href="#g22" y="8262"/><use xlink:href="#g23" y="8279"/><use xlink:href="#g24" y="8296"/><use xlink:href="#g25" y="8313"/><use xlink:href="#g26" y="8330"/><use xlink:href="#g27" y="8347"/><use xlink:href="#g28" y="8364"/><use xlink:href="#g29" y="8381"/><use xlink:href="#g30" y="8415"/><use xlink:href="#g31" y="8432"/><use xlink:href="#g32" y="8466"/><rect x="200" y="8483" width="8" height="17" class="foreground"/><use xlink:href="#g33" y="8483"/></g><g><use xlink:href="#g3" y="8874"/><use xlink:href="#g5" y="8908"/><use xlink:href="#g6" y="8942"/><use xlink:href="#g7" y="8959"/><use xlink:href="#g8" y="8976"/><use xlink:href="#g9" y="8993"/><rect x="0" y="9044" width="8" height="17" class="color1"/><use xlink:href="#g10" y="9044"/><rect x="0" y="9061" width="152" height="17" class="color1"/><use xlink:href="#g11" y="9061"/><rect x="0" y="9078" width="360" height="17" class="color1"/><use xlink:href="#g12" y="9078"/><rect x="0" y="9095" width="216" height="17" class="color1"/><use xlink:href="#g13" y="9095"/><rect x="0" y="9112" width="152" height="17" class="color1"/><use xlink:href="#g14" y="9112"/><rect x="0" y="9129" width="216" height="17" class="color1"/><use xlink:href="#g15" y="9129"/><rect x="0" y="9146" width="248" height="17" class="color1"/><use xlink:href="#g16" y="9146"/><rect x="0" y="9163" width="200" height="17" class="color1"/><use xlink:href="#g17" y="9163"/><rect x="0" y="9180" width="240" height="17" class="color1"/><use xlink:href="#g18" y="9180"/><rect x="0" y="9197" width="328" height="17" class="color1"/><use xlink:href="#g19" y="9197"/><rect x="0" y="9214" width="352" height="17" class="color1"/><use xlink:href="#g20" y="9214"/><rect x="0" y="9231" width="304" height="17" class="color1"/><use xlink:href="#g21" y="9231"/><rect x="0" y="9248" width="16" height="17" class="color1"/><use xlink:href="#g22" y="9248"/><use xlink:href="#g23" y="9265"/><use xlink:href="#g24" y="9282"/><use xlink:href="#g25" y="9299"/><use xlink:href="#g26" y="9316"/><use xlink:href="#g27" y="9333"/><use xlink:href="#g28" y="9350"/><use xlink:href="#g29" y="9367"/><use xlink:href="#g30" y="9401"/><use xlink:href="#g31" y="9418"/><use xlink:href="#g32" y="9452"/><rect x="208" y="9469" width="8" height="17" class="foreground"/><use xlink:href="#g34" y="9469"/></g><g><use xlink:href="#g3" y="9860"/><use xlink:href="#g5" y="9894"/><use xlink:href="#g6" y="9928"/><use xlink:href="#g7" y="9945"/><use xlink:href="#g8" y="9962"/><use xlink:href="#g9" y="9979"/><rect x="0" y="10030" width="8" height="17" class="color1"/><use xlink:href="#g10" y="10030"/><rect x="0" y="10047" width="152" height="17" class="color1"/><use xlink:href="#g11" y="10047"/><rect x="0" y="10064" width="360" height="17" class="color1"/><use xlink:href="#g12" y="10064"/><rect x="0" y="10081" width="216" height="17" class="color1"/><use xlink:href="#g13" y="10081"/><rect x="0" y="10098" width="152" height="17" class="color1"/><use xlink:href="#g14" y="10098"/><rect x="0" y="10115" width="216" height="17" class="color1"/><use xlink:href="#g15" y="10115"/><rect x="0" y="10132" width="248" height="17" class="color1"/><use xlink:href="#g16" y="10132"/><rect x="0" y="10149" width="200" height="17" class="color1"/><use xlink:href="#g17" y="10149"/><rect x="0" y="10166" width="240" height="17" class="color1"/><use xlink:href="#g18" y="10166"/><rect x="0" y="10183" width="328" height="17" class="color1"/><use xlink:href="#g19" y="10183"/><rect x="0" y="10200" width="352" height="17" class="color1"/><use xlink:href="#g20" y="10200"/><rect x="0" y="10217" width="304" height="17" class="color1"/><use xlink:href="#g21" y="10217"/><rect x="0" y="10234" width="16" height="17" class="color1"/><use xlink:href="#g22" y="10234"/><use xlink:href="#g23" y="10251"/><use xlink:href="#g24" y="10268"/><use xlink:href="#g25" y="10285"/><use xlink:href="#g26" y="10302"/><use xlink:href="#g27" y="10319"/><use xlink:href="#g28" y="10336"/><use xlink:href="#g29" y="10353"/><use xlink:href="#g30" y="10387"/><use xlink:href="#g31" y="10404"/><use xlink:href="#g32" y="10438"/><rect x="216" y="10455" width="8" height="17" class="foreground"/><use xlink:href="#g35" y="10455"/></g><g><use xlink:href="#g3" y="10846"/><use xlink:href="#g5" y="10880"/><use xlink:href="#g6" y="10914"/><use xlink:href="#g7" y="10931"/><use xlink:href="#g8" y="10948"/><use xlink:href="#g9" y="10965"/><rect x="0" y="11016" width="8" height="17" class="color1"/><use xlink:href="#g10" y="11016"/><rect x="0" y="11033" width="152" height="17" class="color1"/><use xlink:href="#g11" y="11033"/><rect x="0" y="11050" width="360" height="17" class="color1"/><use xlink:href="#g12" y="11050"/><rect x="0" y="11067" width="216" height="17" class="color1"/><use xlink:href="#g13" y="11067"/><rect x="0" y="11084" width="152" height="17" class="color1"/><use xlink:href="#g14" y="11084"/><rect x="0" y="11101" width="216" height="17" class="color1"/><use xlink:href="#g15" y="11101"/><rect x="0" y="11118" width="248" height="17" class="color1"/><use xlink:href="#g16" y="11118"/><rect x="0" y="11135" width="200" height="17" class="color1"/><use xlink:href="#g17" y="11135"/><rect x="0" y="11152" width="240" height="17" class="color1"/><use xlink:href="#g18" y="11152"/><rect x="0" y="11169" width="328" height="17" class="color1"/><use xlink:href="#g19" y="11169"/><rect x="0" y="11186" width="352" height="17" class="color1"/><use xlink:href="#g20" y="11186"/><rect x="0" y="11203" width="304" height="17" class="color1"/><use xlink:href="#g21" y="11203"/><rect x="0" y="11220" width="16" height="17" class="color1"/><use xlink:href="#g22" y="11220"/><use xlink:href="#g23" y="11237"/><use xlink:href="#g24" y="11254"/><use xlink:href="#g25" y="11271"/><use xlink:href="#g26" y="11288"/><use xlink:href="#g27" y="11305"/><use xlink:href="#g28" y="11322"/><use xlink:href="#g29" y="11339"/><use xlink:href="#g30" y="11373"/><use xlink:href="#g31" y="11390"/><use xlink:href="#g32" y="11424"/><rect x="224" y="11441" width="8" height="17" class="foreground"/><use xlink:href="#g36" y="11441"/></g><g><use xlink:href="#g3" y="11832"/><use xlink:href="#g5" y="11866"/><use xlink:href="#g6" y="11900"/><use xlink:href="#g7" y="11917"/><use xlink:href="#g8" y="11934"/><use xlink:href="#g9" y="11951"/><rect x="0" y="12002" width="8" height="17" class="color1"/><use xlink:href="#g10" y="12002"/><rect x="0" y="12019" width="152" height="17" class="color1"/><use xlink:href="#g11" y="12019"/><rect x="0" y="12036" width="360" height="17" class="color1"/><use xlink:href="#g12" y="12036"/><rect x="0" y="12053" width="216" height="17" class="color1"/><use xlink:href="#g13" y="12053"/><rect x="0" y="12070" width="152" height="17" class="color1"/><use xlink:href="#g14" y="12070"/><rect x="0" y="12087" width="216" height="17" class="color1"/><use xlink:href="#g15" y="12087"/><rect x="0" y="12104" width="248" height="17" class="color1"/><use xlink:href="#g16" y="12104"/><rect x="0" y="12121" width="200" height="17" class="color1"/><use xlink:href="#g17" y="12121"/><rect x="0" y="12138" width="240" height="17" class="color1"/><use xlink:href="#g18" y="12138"/><rect x="0" y="12155" width="328" height="17" class="color1"/><use xlink:href="#g19" y="12155"/><rect x="0" y="12172" width="352" height="17" class="color1"/><use xlink:href="#g20" y="12172"/><rect x="0" y="12189" width="304" height="17" class="color1"/><use xlink:href="#g21" y="12189"/><rect x="0" y="12206" width="16" height="17" class="color1"/><use xlink:href="#g22" y="12206"/><use xlink:href="#g23" y="12223"/><use xlink:href="#g24" y="12240"/><use xlink:href="#g25" y="12257"/><use xlink:href="#g26" y="12274"/><use xlink:href="#g27" y="12291"/><use xlink:href="#g28" y="12308"/><use xlink:href="#g29" y="12325"/><use xlink:href="#g30" y="12359"/><use xlink:href="#g31" y="12376"/><use xlink:href="#g32" y="12410"/><use xlink:href="#g37" y="12427"/><use xlink:href="#g38" y="12444"/><rect x="0" y="12461" width="8" height="17" class="foreground"/><use xlink:href="#g4" y="12461"/></g></g></svg>
</svg>